<?xml version="1.0" encoding="UTF-8"?>
<svg width="151px" height="42px" viewBox="0 0 151 42" version="1.1" xmlns="http://www.w3.org/2000/svg" xmlns:xlink="http://www.w3.org/1999/xlink">
    <!-- Generator: Sketch 52.1 (67048) - http://www.bohemiancoding.com/sketch -->
    <title>Group</title>
    <desc>Created with Sketch.</desc>
    <g id="Music" stroke="none" stroke-width="1" fill="none" fill-rule="evenodd">
        <g id="Desktop-HD-Copy-9" transform="translate(-222.000000, -29.000000)">
            <g id="Group" transform="translate(222.000000, 29.000000)">
                <path d="M60.7474789,37.5128124 L54.5690801,37.5128124 L54.5690801,13.2945501 L60.7474789,13.2945501 L60.7474789,15.7162001 C60.7474789,15.086483 60.9867852,14.5052282 61.4659785,14.0208982 C61.9445909,13.5365682 62.5196229,13.2945501 63.1419933,13.2945501 L74.3013886,13.2945501 C74.9719688,13.2945501 75.5464199,13.5365682 76.0256132,14.0208982 C76.4563063,14.5052282 76.695903,15.086483 76.695903,15.7162001 L76.695903,37.5125187 L70.5177946,37.5125187 L70.5177946,19.348822 L63.1419933,19.348822 C62.5196229,19.348822 61.9445909,19.5911338 61.4659785,20.0270014 C60.9867852,20.5113314 60.7474789,21.0925862 60.7474789,21.770472 L60.7474789,37.5125187 L60.7474789,37.5128124 Z" id="Path" fill="#000200"></path>
                <path d="M81.6617976,10.2916454 C81.51833,10.2916454 81.374572,10.243183 81.2787334,10.1462582 C81.1352658,10.0493335 81.0873465,9.90394639 81.0873465,9.75885299 L81.0873465,4.81833454 C81.0873465,4.67294742 81.1352658,4.52756031 81.2787334,4.38246691 C81.374572,4.28554216 81.51833,4.23707979 81.6617976,4.23707979 L86.7386327,4.23707979 C86.8823907,4.23707979 87.0258583,4.28554216 87.1216969,4.38246691 C87.2175356,4.52756031 87.2654549,4.67294742 87.2654549,4.81833454 L87.2654549,10.2916454 C87.2654549,11.1633806 87.1216969,11.9869472 86.7865521,12.7132954 C86.4514072,13.4883996 86.0204236,14.1665791 85.493311,14.7478338 C84.9188599,15.3287948 84.2482797,15.7649562 83.5297802,16.1041928 C82.7633613,16.4431357 81.9493136,16.5882291 81.0873465,16.5882291 L81.0873465,15.7649562 C81.9972329,15.2321638 82.7633613,14.4570596 83.3383933,13.4883996 C83.9131348,12.5197396 84.2003604,11.4541548 84.2003604,10.2916454 L81.6617976,10.2916454 Z" id="Path" fill="#000200"></path>
                <path d="M91.6571889,4.81833454 C91.6571889,4.43092928 91.8375775,4.23707979 92.1989024,4.23707979 L96.9385538,4.23707979 C97.2998786,4.23707979 97.4805411,4.43092928 97.4805411,4.81833454 L97.4805411,9.71039062 C97.4805411,10.0977959 97.2998786,10.2916454 96.9385538,10.2916454 L92.1989024,10.2916454 C91.8375775,10.2916454 91.6571889,10.0977959 91.6571889,9.71039062 L91.6571889,4.81833454 Z M97.4805411,37.5128124 L91.6571889,37.5128124 L91.6571889,13.2945501 L97.4805411,13.2945501 L97.4805411,37.5128124 Z" id="Shape" fill="#000200" fill-rule="nonzero"></path>
                <path d="M108.404849,37.5128124 L102.226741,37.5128124 L102.226741,4.23707979 L108.404849,4.23707979 L108.404849,15.7164938 C108.404849,15.0867767 108.644446,14.505522 109.123349,14.021192 C109.602252,13.536862 110.176993,13.2948438 110.799364,13.2948438 L121.958759,13.2948438 C122.629339,13.2948438 123.204081,13.536862 123.682984,14.021192 C124.113967,14.505522 124.353273,15.0867767 124.353273,15.7164938 L124.353273,37.5128124 L118.175165,37.5128124 L118.175165,19.3491157 L110.799364,19.3491157 C110.176993,19.3491157 109.602252,19.5914275 109.123349,20.0272952 C108.644446,20.5116252 108.404849,21.0928799 108.404849,21.7707657 L108.404849,37.5128124 Z" id="Path" fill="#000200"></path>
                <path d="M144.693431,13.2945501 L150.87154,13.2945501 L150.87154,37.5128124 L144.693431,37.5128124 L144.693431,35.0911624 C144.693431,35.7690481 144.453835,36.3503029 143.974932,36.7864642 C143.496029,37.2705005 142.921287,37.5128124 142.250998,37.5128124 L131.139522,37.5128124 C130.468941,37.5128124 129.8942,37.2705005 129.463216,36.7864642 C128.984023,36.3503029 128.745007,35.7690481 128.745007,35.0911624 L128.745007,13.2948438 L134.923116,13.2948438 L134.923116,31.4582468 L142.250998,31.4582468 C142.921287,31.4582468 143.496029,31.2162287 143.974932,30.7316049 C144.453835,30.2957373 144.693431,29.7144826 144.693431,29.0363031 L144.693431,13.2945501 Z" id="Path" fill="#000200"></path>
                <path d="M38.3970325,25.6644969 C38.3970325,21.7554927 38.2346876,7.12984278 37.5188019,5.8093166 C36.5212086,3.96804021 33.8034566,2.90715485 31.6903593,4.4030267 C29.4268245,6.00522206 31.1324622,9.02633691 29.9806558,11.5314009 C29.0080386,13.6464163 26.2144869,14.0335278 24.2465998,12.3396945 C21.9162683,10.3339398 10.740319,1.01565381 9.58793174,0.766880309 C6.94307518,0.196492887 4.80935814,2.29917237 5.1657037,4.97517639 C5.43172858,6.97241351 8.11956732,8.62013412 9.37882921,9.64724268 L18.8906709,17.5013776 C22.1523799,20.0275889 25.2360613,22.7153413 28.4635008,25.314393 C29.5049475,26.1529389 32.3713947,28.7898793 33.3884461,29.1916764 C36.0797699,30.2546177 38.3976133,28.2653108 38.3976133,25.6639095 L38.3970325,25.6644969 Z" id="Path" fill="#CB2026"></path>
                <path d="M2.22113352,12.9961394 C-0.254117655,13.9233861 -0.00464672284,16.5914599 0.0734763049,19.5068387 C0.142596307,22.0932607 0.122847735,35.0638472 0.910176836,36.4495773 C1.90806057,38.2059711 4.93075377,39.4416147 6.8367814,37.6385208 C9.30854753,35.3005786 7.07812057,32.7405905 8.52470347,30.4798943 C10.0450531,28.1034759 12.5943614,28.3528368 14.4902243,30.0924891 L24.0084552,38.1889359 C25.6252244,39.6618982 27.3921407,41.5166854 29.5618699,41.1803859 C31.6642215,40.85466 33.5679258,38.273231 32.0580313,35.7261663 C31.2794148,34.4126892 11.5868938,18.1789697 8.25809775,15.465958 C6.88644325,14.3483864 4.95137361,11.9728491 2.22113352,12.9961394 Z" id="Path" fill="#000200"></path>
                <path d="M17.0020685,0.245836392 C15.2920744,0.558051546 14.764381,2.12441412 15.9362264,3.01024753 C16.7624718,3.63555897 19.1110998,3.14447361 20.3334783,3.18676804 C22.6501601,3.26636381 27.6808184,5.08296845 28.1004755,5.02951299 C28.7626335,4.94521784 31.9125308,2.68951474 25.3565857,0.887008247 C22.7773641,0.177695361 19.761641,-0.257584845 17.001778,0.24554268 L17.0020685,0.245836392 Z" id="Path" fill="#CB2026"></path>
                <path d="M10.1821314,36.7497503 C8.88859995,37.5953453 9.21241845,38.8879689 10.2951049,39.4803846 C11.0162182,39.874839 12.6382149,40.5045561 13.6346465,40.786519 C15.3077571,41.2602754 20.2181815,42.2160121 21.7725103,41.4074247 C22.9147328,40.8135404 22.8226696,39.0503912 21.6458871,38.6250972 C21.0824719,38.4215553 18.2743992,38.5287599 17.2434076,38.3904219 C13.2640703,37.8579232 11.4042195,35.9508555 10.1821314,36.7497503 Z" id="Path" fill="#000200"></path>
            </g>
        </g>
    </g>
</svg>